<?xml version="1.0" encoding="UTF-8"?>
<!DOCTYPE svg PUBLIC "-//W3C//DTD SVG 1.0//EN" "http://www.w3.org/TR/2001/REC-SVG-20010904/DTD/svg10.dtd">
<!-- Creator: CorelDRAW -->
<svg xmlns="http://www.w3.org/2000/svg" xml:space="preserve" width="24.315mm" height="3.1877mm" version="1.0" style="shape-rendering:geometricPrecision; text-rendering:geometricPrecision; image-rendering:optimizeQuality; fill-rule:evenodd; clip-rule:evenodd"
viewBox="0 0 1038.61 136.16"
 xmlns:xlink="http://www.w3.org/1999/xlink"
 xmlns:xodm="http://www.corel.com/coreldraw/odm/2003">
 <defs>
  <style type="text/css">
   <![CDATA[
    .fil0 {fill:#FEFEFE;fill-rule:nonzero}
   ]]>
  </style>
 </defs>
 <g id="Capa_x0020_1">
  <metadata id="CorelCorpID_0Corel-Layer"/>
  <path class="fil0" d="M25.08 24.72l0 32.43 63.24 0 0 23.11 -63.24 0 0 53.39 -25.08 0 0 -131.15 96.39 0 0 22.22 -71.3 0zm57.51 108.93l67.01 -130.97 2.51 0 67.01 130.97 -27.23 0 -10.21 -20.61 -61.81 0 -10.03 20.61 -27.23 0zm49.45 -42.46l37.45 0 -18.64 -39.59 -18.81 39.59zm120.58 42.46l-25.08 0 0 -131.15 59.57 0c6.72,0 12.84,1.11 18.42,3.31 5.55,2.21 10.3,5.31 14.25,9.32 3.97,4 7.04,8.78 9.26,14.34 2.21,5.55 3.31,11.61 3.31,18.18 0,9.91 -2.48,18.57 -7.44,25.98 -4.98,7.4 -11.58,12.72 -19.86,15.95 11.02,14.57 21.92,29.26 32.67,44.07l-29.92 0c-5.22,-6.81 -10.36,-13.68 -15.35,-20.61 -5.01,-6.92 -10,-13.97 -15.02,-21.14l-24.81 0 0 41.75zm0 -63.96l34.46 0c2.27,0 4.63,-0.45 7.05,-1.35 2.45,-0.89 4.63,-2.27 6.54,-4.12 1.88,-1.85 3.46,-4.15 4.72,-6.9 1.26,-2.75 1.88,-5.97 1.88,-9.67 0,-1.91 -0.24,-4.18 -0.72,-6.81 -0.48,-2.63 -1.44,-5.13 -2.87,-7.53 -1.41,-2.39 -3.43,-4.42 -6.06,-6.09 -2.63,-1.67 -6.12,-2.51 -10.54,-2.51l-34.46 0 0 44.97zm235.96 -67.01l0 130.97 -25.08 0 0 -66.29 -41.03 49.27 -40.85 -49.27 0 66.29 -25.08 0 0 -130.97 1.61 0 64.32 75.61 64.5 -75.61 1.61 0zm13.26 130.97l67.01 -130.97 2.51 0 67.01 130.97 -27.23 0 -10.21 -20.61 -61.81 0 -10.03 20.61 -27.23 0zm49.45 -42.46l37.45 0 -18.64 -39.59 -18.81 39.59zm215.53 10.21c-2.87,5.25 -6.39,10 -10.57,14.25 -4.18,4.24 -8.81,7.88 -13.88,10.93 -5.08,3.05 -10.57,5.41 -16.48,7.08 -5.91,1.67 -12.03,2.51 -18.36,2.51 -9.32,0 -18.1,-1.79 -26.34,-5.37 -8.24,-3.58 -15.44,-8.45 -21.59,-14.6 -6.16,-6.15 -11.02,-13.34 -14.6,-21.59 -3.58,-8.24 -5.37,-17.02 -5.37,-26.34 0,-9.32 1.79,-18.09 5.37,-26.33 3.58,-8.24 8.45,-15.44 14.6,-21.59 6.15,-6.15 13.34,-11.02 21.59,-14.6 8.24,-3.58 17.02,-5.37 26.34,-5.37 6.33,0 12.45,0.83 18.36,2.51 5.91,1.67 11.4,4.03 16.48,7.08 5.07,3.05 9.7,6.69 13.88,10.93 4.18,4.24 7.71,8.93 10.57,14.07l-23.47 9.5c-1.91,-2.87 -4.15,-5.55 -6.72,-8.06 -2.57,-2.51 -5.4,-4.72 -8.51,-6.63 -3.11,-1.91 -6.39,-3.4 -9.85,-4.48 -3.46,-1.08 -7.05,-1.61 -10.75,-1.61 -5.98,0 -11.56,1.23 -16.75,3.67 -5.2,2.45 -9.7,5.7 -13.53,9.76 -3.82,4.06 -6.87,8.81 -9.14,14.25 -2.27,5.43 -3.4,11.08 -3.4,16.93 0,5.98 1.14,11.65 3.4,17.02 2.27,5.37 5.31,10.09 9.14,14.16 3.82,4.06 8.33,7.31 13.53,9.76 5.19,2.45 10.78,3.67 16.75,3.67 3.7,0 7.28,-0.53 10.75,-1.61 3.46,-1.08 6.75,-2.57 9.85,-4.48 3.11,-1.91 5.94,-4.15 8.51,-6.72 2.57,-2.57 4.81,-5.28 6.72,-8.15l23.47 9.5zm80.62 34.76c-9.32,0 -18.09,-1.79 -26.33,-5.37 -8.24,-3.58 -15.44,-8.45 -21.59,-14.6 -6.15,-6.15 -11.02,-13.34 -14.6,-21.59 -3.58,-8.24 -5.37,-17.08 -5.37,-26.52 0,-9.32 1.79,-18.12 5.37,-26.42 3.58,-8.3 8.45,-15.53 14.6,-21.68 6.15,-6.16 13.35,-11.02 21.59,-14.6 8.24,-3.58 17.02,-5.37 26.33,-5.37 9.44,0 18.28,1.79 26.52,5.37 8.24,3.58 15.44,8.45 21.59,14.6 6.15,6.15 11.02,13.37 14.6,21.68 3.58,8.3 5.37,17.11 5.37,26.42 0,9.44 -1.79,18.28 -5.37,26.52 -3.58,8.24 -8.45,15.44 -14.6,21.59 -6.15,6.16 -13.34,11.02 -21.59,14.6 -8.24,3.58 -17.08,5.37 -26.52,5.37zm0.09 -112.69c-5.97,0 -11.52,1.23 -16.72,3.67 -5.17,2.45 -9.7,5.71 -13.59,9.76 -3.88,4.06 -6.93,8.81 -9.2,14.25 -2.27,5.43 -3.4,11.08 -3.4,16.93 0,5.98 1.13,11.65 3.4,17.02 2.27,5.37 5.31,10.12 9.2,14.25 3.88,4.12 8.42,7.4 13.59,9.85 5.19,2.45 10.75,3.67 16.72,3.67 5.97,0 11.53,-1.22 16.72,-3.67 5.16,-2.45 9.7,-5.74 13.59,-9.85 3.88,-4.12 6.93,-8.87 9.2,-14.25 2.27,-5.37 3.4,-11.05 3.4,-17.02 0,-5.85 -1.14,-11.49 -3.4,-16.93 -2.27,-5.44 -5.31,-10.18 -9.2,-14.25 -3.88,-4.06 -8.42,-7.31 -13.59,-9.76 -5.19,-2.45 -10.75,-3.67 -16.72,-3.67zm85.02 92.99l13.62 -20.06c6.57,4.54 13.35,8.45 20.34,11.73 6.98,3.28 14.3,4.93 21.95,4.93 4.06,0 7.64,-0.5 10.75,-1.52 3.11,-1.02 5.74,-2.33 7.89,-3.94 2.15,-1.61 3.76,-3.46 4.84,-5.55 1.08,-2.09 1.61,-4.15 1.61,-6.18 0,-2.63 -0.81,-4.87 -2.42,-6.72 -1.61,-1.85 -3.76,-3.37 -6.45,-4.57 -2.69,-1.19 -5.86,-2.21 -9.5,-3.05 -3.64,-0.83 -7.44,-1.61 -11.38,-2.33 -2.63,-0.48 -5.67,-1.05 -9.14,-1.7 -3.46,-0.66 -7.05,-1.55 -10.75,-2.69 -3.7,-1.13 -7.34,-2.63 -10.93,-4.48 -3.58,-1.85 -6.81,-4.18 -9.67,-6.99 -2.87,-2.81 -5.17,-6.15 -6.9,-10.03 -1.73,-3.88 -2.6,-8.45 -2.6,-13.71 0,-7.64 1.55,-14 4.66,-19.08 3.11,-5.07 7.08,-9.08 11.92,-12 4.84,-2.93 10.21,-4.98 16.12,-6.18 5.91,-1.2 11.61,-1.79 17.11,-1.79 5.49,0 10.39,0.35 14.69,1.07 4.3,0.72 8.3,1.76 12,3.14 3.7,1.38 7.32,3.11 10.84,5.2 3.52,2.09 7.32,4.57 11.38,7.43l-13.98 19.71c-6.21,-4.3 -12.18,-7.58 -17.91,-9.85 -5.73,-2.27 -11.76,-3.4 -18.09,-3.4 -2.15,0 -4.6,0.27 -7.35,0.81 -2.75,0.54 -5.35,1.41 -7.8,2.6 -2.45,1.2 -4.48,2.72 -6.09,4.57 -1.61,1.85 -2.42,4.09 -2.42,6.72 0,2.63 0.96,4.84 2.87,6.63 1.91,1.79 4.36,3.28 7.35,4.48 2.99,1.2 6.27,2.21 9.85,3.05 3.58,0.84 7.04,1.67 10.39,2.51 2.51,0.59 5.47,1.19 8.87,1.79 3.4,0.6 6.92,1.44 10.57,2.51 3.64,1.08 7.26,2.51 10.84,4.3 3.58,1.79 6.78,4.09 9.59,6.9 2.81,2.81 5.07,6.27 6.81,10.39 1.73,4.12 2.6,9.11 2.6,14.96 0,6.81 -1.2,12.72 -3.58,17.74 -2.39,5.02 -5.79,9.17 -10.21,12.45 -4.42,3.28 -9.67,5.77 -15.77,7.44 -6.09,1.67 -12.84,2.51 -20.24,2.51 -6.81,0 -12.81,-0.51 -18.01,-1.52 -5.19,-1.02 -9.94,-2.39 -14.24,-4.12 -4.3,-1.73 -8.36,-3.79 -12.19,-6.18 -3.82,-2.39 -7.76,-5.02 -11.82,-7.89z"/>
 </g>
</svg>
