<?xml version="1.0" encoding="UTF-8"?>
<!DOCTYPE svg PUBLIC "-//W3C//DTD SVG 1.0//EN" "http://www.w3.org/TR/2001/REC-SVG-20010904/DTD/svg10.dtd">
<!-- Creator: CorelDRAW -->
<svg xmlns="http://www.w3.org/2000/svg" xml:space="preserve" width="8.7599mm" height="4.0843mm" version="1.0" style="shape-rendering:geometricPrecision; text-rendering:geometricPrecision; image-rendering:optimizeQuality; fill-rule:evenodd; clip-rule:evenodd"
viewBox="0 0 115.28 53.75"
 xmlns:xlink="http://www.w3.org/1999/xlink"
 xmlns:xodm="http://www.corel.com/coreldraw/odm/2003">
 <defs>
  <style type="text/css">
   <![CDATA[
    .fil0 {fill:#DF9C43}
    .fil1 {fill:#F4C456}
   ]]>
  </style>
 </defs>
 <g id="Capa_x0020_1">
  <metadata id="CorelCorpID_0Corel-Layer"/>
  <g id="_2524345246688">
   <path class="fil0" d="M90.89 49.24l-28.13 -28.55c6.49,-4.82 14.97,-6.14 22.61,-0.53l29.91 29.39c-6.21,5.83 -18.42,5.06 -24.39,-0.31z"/>
   <path class="fil1" d="M68.56 17.56c5.33,-1.89 11.29,-1.45 16.81,2.6l29.91 29.39c-2.41,2.26 -5.73,3.53 -9.23,3.92l-37.49 -35.91z"/>
   <path class="fil1" d="M23.14 49.85c-7.78,6.23 -15.48,4.16 -23.14,-0.37l46.19 -45.46c9.54,-7.69 19.62,-3.62 29.97,5.99 -7.65,-0.05 -13.82,1.75 -18.07,5.9l-34.94 33.93z"/>
   <path class="fil0" d="M23.14 49.85c-5.22,4.18 -10.4,4.62 -15.55,3.1l37.45 -37.2c2.56,-2.55 4.48,-4.3 7.94,-5.76 4.26,-1.81 8.24,-1.49 11.83,1.76l0 0c-2.59,0.96 -4.84,2.33 -6.72,4.17l-34.94 33.93z"/>
   <path class="fil0" d="M75.37 42.7c-11.76,5.99 -21.7,4.45 -29.63,-5.39l12.36 -11.88 17.27 17.27z"/>
   <path class="fil1" d="M75.37 42.7c-3.1,1.58 -6.07,2.63 -8.91,3.15l-14.83 -14.2 6.47 -6.22 17.27 17.27z"/>
  </g>
 </g>
</svg>
