<?xml version="1.0" encoding="UTF-8"?>
<!DOCTYPE svg PUBLIC "-//W3C//DTD SVG 1.0//EN" "http://www.w3.org/TR/2001/REC-SVG-20010904/DTD/svg10.dtd">
<!-- Creator: CorelDRAW -->
<svg xmlns="http://www.w3.org/2000/svg" xml:space="preserve"  width="68mm" height="36mm" version="1.0" style="shape-rendering:geometricPrecision; text-rendering:geometricPrecision; image-rendering:optimizeQuality; fill-rule:evenodd; clip-rule:evenodd"
viewBox="0 0 873.61 459.95"
 xmlns:xlink="http://www.w3.org/1999/xlink"
 xmlns:xodm="http://www.corel.com/coreldraw/odm/2003">
 <defs>
  <style type="text/css">
   <![CDATA[
    .fil2 {fill:#A0BE4E}
    .fil0 {fill:#DF9C43}
    .fil1 {fill:#F4C456}
    .fil3 {fill:#46828C;fill-rule:nonzero}
   ]]>
  </style>
 </defs>
 <g id="Capa_x0020_1">
  <metadata id="CorelCorpID_0Corel-Layer"/>
  <g id="_2524838704128">
   <path class="fil0" d="M548.65 193.02l-110.29 -111.91c25.42,-18.91 58.67,-24.06 88.63,-2.07l117.26 115.21c-24.33,22.87 -72.22,19.84 -95.6,-1.22z"/>
   <path class="fil1" d="M461.09 68.84c20.89,-7.41 44.26,-5.7 65.91,10.19l117.26 115.21c-9.45,8.88 -22.45,13.85 -36.19,15.38l-146.98 -140.79z"/>
   <path class="fil1" d="M283.05 195.42c-30.52,24.42 -60.67,16.32 -90.73,-1.44l181.09 -178.2c37.38,-30.17 76.92,-14.17 117.47,23.49 -30,-0.19 -54.16,6.84 -70.85,23.13l-136.99 133.01z"/>
   <path class="fil0" d="M283.05 195.42c-20.46,16.37 -40.75,18.13 -60.97,12.15l146.81 -145.85c10.06,-9.99 17.57,-16.84 31.11,-22.58 16.71,-7.09 32.31,-5.83 46.38,6.92l0 0.01c-10.14,3.76 -18.97,9.14 -26.34,16.34l-136.99 133.01z"/>
   <path class="fil0" d="M487.8 167.4c-46.09,23.46 -85.06,17.46 -116.15,-21.14l48.45 -46.56 67.7 67.69z"/>
   <path class="fil1" d="M487.8 167.4c-12.15,6.19 -23.8,10.32 -34.95,12.35l-58.12 -55.67 25.37 -24.38 67.7 67.69z"/>
  </g>
  <path class="fil2" d="M873.61 308.03c-278.45,-107.18 -566.67,-124.77 -873.61,-12.84 297.72,-88.17 586.86,-74.28 873.61,12.84z"/>
  <path class="fil3" d="M65.59 322.22l0 25.12 49 0 0 17.91 -49 0 0 41.37 -19.43 0 0 -101.61 74.68 0 0 17.22 -55.25 0zm44.55 84.4l51.92 -101.47 1.94 0 51.92 101.47 -21.1 0 -7.91 -15.96 -47.89 0 -7.77 15.96 -21.1 0zm38.32 -32.9l29.01 0 -14.44 -30.68 -14.57 30.68zm93.43 32.9l-19.43 0 0 -101.61 46.15 0c5.21,0 9.95,0.86 14.28,2.57 4.3,1.71 7.98,4.12 11.04,7.22 3.08,3.1 5.46,6.8 7.17,11.11 1.71,4.3 2.57,9 2.57,14.09 0,7.68 -1.92,14.39 -5.76,20.13 -3.86,5.74 -8.98,9.86 -15.39,12.36 8.54,11.29 16.98,22.67 25.31,34.15l-23.18 0c-4.05,-5.27 -8.03,-10.6 -11.89,-15.96 -3.89,-5.37 -7.75,-10.83 -11.64,-16.38l-19.22 0 0 32.34zm0 -49.56l26.7 0c1.75,0 3.59,-0.35 5.46,-1.04 1.9,-0.69 3.59,-1.75 5.07,-3.19 1.46,-1.44 2.68,-3.22 3.66,-5.34 0.97,-2.13 1.45,-4.63 1.45,-7.5 0,-1.48 -0.19,-3.24 -0.55,-5.28 -0.37,-2.03 -1.11,-3.98 -2.22,-5.83 -1.09,-1.85 -2.66,-3.43 -4.69,-4.72 -2.04,-1.29 -4.75,-1.94 -8.17,-1.94l-26.7 0 0 34.84zm182.82 -51.92l0 101.47 -19.43 0 0 -51.36 -31.79 38.18 -31.65 -38.18 0 51.36 -19.43 0 0 -101.47 1.25 0 49.83 58.58 49.98 -58.58 1.25 0zm10.27 101.47l51.92 -101.47 1.94 0 51.92 101.47 -21.1 0 -7.91 -15.96 -47.89 0 -7.77 15.96 -21.1 0zm38.32 -32.9l29.01 0 -14.44 -30.68 -14.57 30.68zm167 7.91c-2.22,4.07 -4.95,7.75 -8.19,11.04 -3.24,3.29 -6.83,6.11 -10.76,8.47 -3.93,2.36 -8.19,4.19 -12.77,5.48 -4.58,1.29 -9.32,1.94 -14.23,1.94 -7.22,0 -14.02,-1.39 -20.4,-4.17 -6.39,-2.78 -11.96,-6.55 -16.73,-11.31 -4.76,-4.77 -8.53,-10.34 -11.31,-16.73 -2.78,-6.38 -4.16,-13.19 -4.16,-20.4 0,-7.22 1.39,-14.02 4.16,-20.4 2.78,-6.39 6.55,-11.96 11.31,-16.73 4.77,-4.76 10.34,-8.53 16.73,-11.31 6.38,-2.78 13.19,-4.16 20.4,-4.16 4.91,0 9.65,0.65 14.23,1.94 4.58,1.29 8.84,3.12 12.77,5.48 3.94,2.36 7.52,5.18 10.76,8.47 3.24,3.29 5.97,6.92 8.19,10.9l-18.19 7.36c-1.48,-2.22 -3.21,-4.3 -5.21,-6.25 -1.99,-1.94 -4.18,-3.65 -6.59,-5.13 -2.4,-1.48 -4.95,-2.64 -7.64,-3.47 -2.68,-0.83 -5.46,-1.25 -8.33,-1.25 -4.63,0 -8.95,0.95 -12.98,2.85 -4.02,1.89 -7.52,4.42 -10.48,7.56 -2.96,3.15 -5.32,6.83 -7.08,11.04 -1.75,4.21 -2.64,8.58 -2.64,13.12 0,4.63 0.88,9.02 2.64,13.19 1.76,4.16 4.12,7.82 7.08,10.97 2.96,3.15 6.45,5.66 10.48,7.56 4.03,1.9 8.35,2.85 12.98,2.85 2.87,0 5.64,-0.42 8.33,-1.25 2.69,-0.84 5.23,-1.99 7.64,-3.47 2.41,-1.48 4.61,-3.21 6.59,-5.21 1.99,-1.99 3.72,-4.1 5.21,-6.31l18.19 7.36zm62.47 26.93c-7.22,0 -14.02,-1.39 -20.41,-4.17 -6.38,-2.78 -11.96,-6.55 -16.73,-11.31 -4.77,-4.77 -8.54,-10.34 -11.31,-16.73 -2.78,-6.38 -4.16,-13.23 -4.16,-20.54 0,-7.22 1.39,-14.04 4.16,-20.48 2.78,-6.43 6.55,-12.03 11.31,-16.79 4.77,-4.77 10.34,-8.54 16.73,-11.31 6.39,-2.78 13.19,-4.17 20.41,-4.17 7.31,0 14.16,1.39 20.54,4.17 6.39,2.78 11.96,6.55 16.73,11.31 4.77,4.76 8.54,10.36 11.31,16.79 2.78,6.43 4.16,13.26 4.16,20.48 0,7.31 -1.39,14.16 -4.16,20.54 -2.78,6.39 -6.55,11.96 -11.31,16.73 -4.77,4.76 -10.34,8.53 -16.73,11.31 -6.39,2.78 -13.23,4.17 -20.54,4.17zm0.07 -87.32c-4.63,0 -8.93,0.95 -12.95,2.85 -4,1.9 -7.52,4.42 -10.53,7.56 -3.01,3.15 -5.37,6.83 -7.12,11.04 -1.76,4.22 -2.64,8.58 -2.64,13.12 0,4.63 0.88,9.02 2.64,13.19 1.76,4.16 4.12,7.84 7.12,11.04 3.01,3.19 6.53,5.74 10.53,7.64 4.02,1.9 8.33,2.85 12.95,2.85 4.63,0 8.93,-0.95 12.96,-2.85 4,-1.9 7.52,-4.44 10.52,-7.64 3.01,-3.19 5.37,-6.87 7.12,-11.04 1.76,-4.16 2.64,-8.56 2.64,-13.19 0,-4.53 -0.88,-8.9 -2.64,-13.12 -1.76,-4.21 -4.12,-7.89 -7.12,-11.04 -3.01,-3.15 -6.53,-5.66 -10.52,-7.56 -4.03,-1.9 -8.33,-2.85 -12.96,-2.85zm65.87 72.05l10.55 -15.55c5.09,3.52 10.34,6.55 15.76,9.1 5.42,2.54 11.08,3.82 17,3.82 3.15,0 5.92,-0.4 8.33,-1.18 2.4,-0.78 4.44,-1.81 6.11,-3.05 1.66,-1.25 2.91,-2.68 3.75,-4.3 0.83,-1.62 1.25,-3.21 1.25,-4.79 0,-2.04 -0.62,-3.77 -1.87,-5.21 -1.25,-1.43 -2.91,-2.62 -5,-3.54 -2.08,-0.92 -4.53,-1.71 -7.36,-2.36 -2.82,-0.65 -5.76,-1.25 -8.81,-1.81 -2.04,-0.37 -4.4,-0.81 -7.08,-1.32 -2.68,-0.51 -5.46,-1.21 -8.33,-2.08 -2.87,-0.88 -5.69,-2.04 -8.47,-3.47 -2.78,-1.43 -5.28,-3.23 -7.5,-5.41 -2.22,-2.18 -4,-4.77 -5.34,-7.77 -1.34,-3.01 -2.01,-6.55 -2.01,-10.62 0,-5.92 1.2,-10.85 3.61,-14.79 2.41,-3.93 5.48,-7.03 9.23,-9.3 3.75,-2.26 7.91,-3.86 12.49,-4.79 4.58,-0.92 9,-1.39 13.26,-1.39 4.26,0 8.05,0.28 11.38,0.84 3.33,0.55 6.43,1.36 9.3,2.42 2.87,1.07 5.67,2.41 8.4,4.03 2.73,1.62 5.66,3.54 8.81,5.76l-10.82 15.27c-4.81,-3.33 -9.44,-5.88 -13.88,-7.64 -4.44,-1.76 -9.12,-2.64 -14.02,-2.64 -1.67,0 -3.56,0.21 -5.69,0.62 -2.13,0.42 -4.14,1.09 -6.04,2.01 -1.9,0.93 -3.47,2.1 -4.72,3.54 -1.25,1.43 -1.87,3.17 -1.87,5.21 0,2.04 0.74,3.75 2.22,5.14 1.48,1.39 3.38,2.54 5.69,3.47 2.32,0.92 4.86,1.71 7.64,2.36 2.78,0.65 5.46,1.29 8.05,1.94 1.94,0.46 4.23,0.92 6.87,1.39 2.64,0.46 5.37,1.11 8.19,1.94 2.82,0.83 5.62,1.94 8.4,3.33 2.78,1.39 5.25,3.17 7.43,5.34 2.17,2.18 3.93,4.86 5.27,8.05 1.34,3.19 2.01,7.06 2.01,11.59 0,5.27 -0.92,9.85 -2.78,13.74 -1.85,3.89 -4.49,7.1 -7.91,9.65 -3.42,2.55 -7.5,4.47 -12.21,5.76 -4.72,1.29 -9.95,1.94 -15.69,1.94 -5.27,0 -9.93,-0.4 -13.95,-1.18 -4.02,-0.78 -7.7,-1.85 -11.04,-3.19 -3.33,-1.34 -6.48,-2.94 -9.44,-4.79 -2.96,-1.85 -6.02,-3.89 -9.16,-6.11z"/>
  <path class="fil3" d="M60.52 439.94c0.03,0.08 0.04,0.19 0.04,0.34l0 8.75c0,1.93 -0.45,3.7 -1.36,5.28 -0.91,1.59 -2.15,2.84 -3.72,3.75 -1.57,0.9 -3.33,1.36 -5.27,1.36 -1.93,0 -3.69,-0.45 -5.27,-1.36 -1.57,-0.91 -2.82,-2.16 -3.72,-3.75 -0.91,-1.58 -1.36,-3.35 -1.36,-5.28 0,-1.93 0.44,-3.69 1.32,-5.27 0.88,-1.58 2.08,-2.82 3.61,-3.72 1.53,-0.9 3.23,-1.36 5.12,-1.36 1.61,0 3.09,0.34 4.43,1.02 1.34,0.69 2.45,1.62 3.31,2.81l0 -10.91c0,-0.42 0.14,-0.77 0.41,-1.04 0.27,-0.27 0.62,-0.41 1.04,-0.41 0.42,0 0.76,0.14 1.02,0.41 0.26,0.27 0.39,0.62 0.39,1.04l0 8.34zm-10.31 16.87c1.41,0 2.69,-0.34 3.83,-1.02 1.15,-0.69 2.04,-1.61 2.7,-2.8 0.66,-1.18 0.99,-2.5 0.99,-3.96 0,-0.42 -0.02,-0.73 -0.04,-0.93 -0.03,-0.05 -0.04,-0.11 -0.04,-0.19 -0.25,-1.93 -1.06,-3.52 -2.44,-4.76 -1.38,-1.24 -3.05,-1.86 -5.01,-1.86 -1.41,0 -2.7,0.34 -3.85,1.01 -1.15,0.67 -2.06,1.59 -2.71,2.77 -0.66,1.18 -0.99,2.5 -0.99,3.97 0,1.47 0.33,2.79 0.99,3.96 0.66,1.18 1.56,2.11 2.71,2.8 1.16,0.68 2.44,1.02 3.85,1.02zm85.36 -18.13c1.84,0 3.46,0.43 4.88,1.28 1.41,0.86 2.51,2.04 3.3,3.55 0.78,1.51 1.17,3.24 1.17,5.17 0,0.4 -0.12,0.71 -0.37,0.95 -0.25,0.24 -0.57,0.35 -0.97,0.35l-15.04 0c0.2,2.04 0.99,3.69 2.38,4.95 1.39,1.27 3.13,1.9 5.21,1.9 0.89,0 1.8,-0.15 2.7,-0.46 0.91,-0.31 1.63,-0.7 2.18,-1.17 0.33,-0.25 0.66,-0.37 1.01,-0.37 0.27,0 0.55,0.1 0.82,0.29 0.32,0.3 0.48,0.63 0.48,1.01 0,0.33 -0.14,0.61 -0.41,0.86 -0.82,0.7 -1.86,1.27 -3.13,1.73 -1.26,0.46 -2.48,0.69 -3.65,0.69 -1.99,0 -3.76,-0.44 -5.32,-1.32 -1.56,-0.88 -2.79,-2.11 -3.67,-3.68 -0.88,-1.58 -1.32,-3.36 -1.32,-5.34 0,-2.01 0.42,-3.8 1.25,-5.38 0.83,-1.57 1.99,-2.8 3.46,-3.68 1.48,-0.88 3.16,-1.32 5.05,-1.32zm0 2.57c-1.89,0 -3.45,0.58 -4.69,1.75 -1.24,1.17 -2,2.7 -2.28,4.62l13.63 0c-0.2,-1.91 -0.89,-3.45 -2.08,-4.62 -1.19,-1.17 -2.71,-1.75 -4.58,-1.75z"/>
  <path class="fil3" d="M284.69 459.76c-1.52,0 -2.75,-0.6 -3.7,-1.81 -0.95,-1.2 -1.43,-2.75 -1.43,-4.63l0 -21.22c0,-0.42 0.14,-0.76 0.41,-1.03 0.27,-0.26 0.61,-0.39 1.01,-0.39 0.42,0 0.76,0.13 1.03,0.39 0.26,0.26 0.39,0.6 0.39,1.03l0 21.22c0,1.06 0.22,1.93 0.65,2.61 0.43,0.67 0.99,1.01 1.66,1.01l0.93 0c0.37,0 0.67,0.13 0.9,0.39 0.22,0.26 0.33,0.6 0.33,1.03 0,0.42 -0.15,0.76 -0.46,1.02 -0.31,0.26 -0.71,0.39 -1.21,0.39l-0.48 0zm72.01 -20.55c1.93,0 3.69,0.45 5.27,1.36 1.58,0.91 2.82,2.15 3.72,3.74 0.9,1.59 1.36,3.35 1.36,5.29l0 8.75c0,0.4 -0.13,0.73 -0.41,1.01 -0.27,0.27 -0.62,0.41 -1.04,0.41 -0.42,0 -0.77,-0.13 -1.04,-0.39 -0.27,-0.26 -0.41,-0.6 -0.41,-1.02l0 -2.23c-0.87,1.19 -1.97,2.13 -3.31,2.81 -1.34,0.68 -2.82,1.02 -4.43,1.02 -1.88,0 -3.59,-0.45 -5.12,-1.36 -1.53,-0.91 -2.73,-2.15 -3.61,-3.72 -0.88,-1.57 -1.32,-3.33 -1.32,-5.27 0,-1.93 0.45,-3.7 1.36,-5.29 0.9,-1.59 2.15,-2.83 3.72,-3.74 1.58,-0.9 3.33,-1.36 5.27,-1.36zm0 18.13c1.41,0 2.69,-0.34 3.83,-1.01 1.15,-0.67 2.04,-1.59 2.7,-2.77 0.66,-1.18 0.99,-2.5 0.99,-3.97 0,-1.47 -0.33,-2.79 -0.99,-3.96 -0.66,-1.18 -1.56,-2.11 -2.7,-2.8 -1.14,-0.68 -2.42,-1.02 -3.83,-1.02 -1.41,0 -2.7,0.34 -3.85,1.02 -1.15,0.69 -2.06,1.61 -2.71,2.8 -0.66,1.18 -0.99,2.5 -0.99,3.96 0,1.47 0.33,2.79 0.99,3.97 0.66,1.18 1.56,2.1 2.71,2.77 1.16,0.67 2.44,1.01 3.85,1.01z"/>
  <path class="fil3" d="M518.21 459.8c-2.63,0 -5.05,-0.67 -7.26,-2.01 -2.21,-1.34 -3.96,-3.15 -5.27,-5.43 -1.3,-2.29 -1.96,-4.78 -1.96,-7.48 0,-2.68 0.64,-5.16 1.94,-7.45 1.29,-2.28 3.04,-4.09 5.25,-5.43 2.21,-1.34 4.64,-2.01 7.3,-2.01 1.79,0 3.42,0.26 4.88,0.78 1.47,0.52 2.88,1.35 4.24,2.49 0.27,0.2 0.41,0.48 0.41,0.86 0,0.2 -0.05,0.38 -0.15,0.54 -0.1,0.16 -0.24,0.28 -0.41,0.35 -0.05,0.18 -0.16,0.31 -0.33,0.41 -0.18,0.1 -0.36,0.15 -0.56,0.15 -0.37,0 -0.68,-0.11 -0.93,-0.34 -0.97,-0.87 -2.02,-1.5 -3.16,-1.9 -1.15,-0.4 -2.47,-0.6 -3.99,-0.6 -2.08,0 -4.02,0.55 -5.8,1.66 -1.79,1.1 -3.21,2.59 -4.27,4.45 -1.05,1.86 -1.58,3.87 -1.58,6.03 0,2.21 0.52,4.24 1.56,6.1 1.04,1.86 2.46,3.34 4.25,4.43 1.79,1.09 3.74,1.64 5.84,1.64 2.71,0 5.15,-0.87 7.34,-2.61 0.27,-0.2 0.55,-0.3 0.82,-0.3 0.37,0 0.69,0.13 0.96,0.39 0.27,0.26 0.41,0.6 0.41,1.03 0,0.4 -0.14,0.74 -0.41,1.04 -2.33,2.13 -5.37,3.2 -9.12,3.2zm82.05 -0.19c-1.96,0 -3.73,-0.45 -5.3,-1.34 -1.58,-0.89 -2.81,-2.13 -3.7,-3.7 -0.89,-1.57 -1.34,-3.34 -1.34,-5.3 0,-1.96 0.45,-3.74 1.34,-5.32 0.89,-1.59 2.13,-2.83 3.7,-3.72 1.57,-0.9 3.34,-1.34 5.3,-1.34 1.96,0 3.72,0.44 5.29,1.34 1.56,0.89 2.8,2.13 3.7,3.72 0.9,1.59 1.36,3.36 1.36,5.32 0,1.96 -0.44,3.73 -1.34,5.3 -0.89,1.58 -2.13,2.81 -3.7,3.7 -1.58,0.89 -3.35,1.34 -5.31,1.34zm0 -2.61c1.44,0 2.73,-0.34 3.87,-1.01 1.14,-0.67 2.03,-1.59 2.68,-2.77 0.64,-1.18 0.97,-2.5 0.97,-3.97 0,-1.49 -0.33,-2.82 -0.97,-4 -0.64,-1.18 -1.54,-2.1 -2.68,-2.77 -1.15,-0.67 -2.44,-1.01 -3.87,-1.01 -1.41,0 -2.7,0.34 -3.85,1.01 -1.15,0.67 -2.06,1.59 -2.71,2.77 -0.66,1.18 -0.99,2.51 -0.99,4 0,1.47 0.33,2.79 0.99,3.97 0.66,1.18 1.56,2.1 2.71,2.77 1.16,0.67 2.44,1.01 3.85,1.01zm81.6 2.61c-1.54,0 -3.02,-0.26 -4.43,-0.78 -1.41,-0.52 -2.56,-1.25 -3.43,-2.2 -0.25,-0.3 -0.37,-0.58 -0.37,-0.86 0,-0.42 0.2,-0.79 0.59,-1.12 0.3,-0.22 0.61,-0.34 0.93,-0.34 0.42,0 0.78,0.18 1.08,0.52 0.6,0.7 1.38,1.23 2.36,1.6 0.98,0.37 2.07,0.56 3.26,0.56 1.73,0 3.04,-0.3 3.91,-0.89 0.87,-0.6 1.32,-1.38 1.34,-2.35 0,-0.89 -0.43,-1.64 -1.3,-2.23 -0.87,-0.59 -2.25,-1.04 -4.13,-1.34 -2.44,-0.4 -4.25,-1.08 -5.46,-2.06 -1.2,-0.98 -1.81,-2.17 -1.81,-3.55 0,-1.81 0.7,-3.21 2.1,-4.21 1.4,-0.99 3.16,-1.49 5.27,-1.49 1.64,0 3.06,0.28 4.28,0.84 1.22,0.56 2.2,1.34 2.94,2.33 0.2,0.33 0.3,0.61 0.3,0.86 0,0.42 -0.2,0.76 -0.6,1.01 -0.17,0.12 -0.41,0.19 -0.71,0.19 -0.52,0 -0.95,-0.19 -1.3,-0.56 -1.22,-1.39 -2.88,-2.08 -4.99,-2.08 -1.37,0 -2.46,0.28 -3.28,0.84 -0.82,0.56 -1.23,1.26 -1.23,2.1 0,0.89 0.38,1.6 1.15,2.14 0.77,0.53 2.14,0.96 4.1,1.28 2.66,0.44 4.56,1.17 5.7,2.18 1.14,1.01 1.71,2.25 1.71,3.74 0,1.14 -0.34,2.16 -1.02,3.05 -0.69,0.89 -1.64,1.59 -2.85,2.08 -1.22,0.5 -2.6,0.74 -4.13,0.74zm80.48 -3.05c0.4,0 0.72,0.14 0.97,0.41 0.25,0.27 0.37,0.62 0.37,1.04 0,0.4 -0.15,0.73 -0.44,1.01 -0.3,0.27 -0.67,0.41 -1.12,0.41l-0.78 0c-1.32,0 -2.5,-0.31 -3.54,-0.95 -1.04,-0.63 -1.85,-1.49 -2.44,-2.57 -0.58,-1.08 -0.87,-2.3 -0.87,-3.67l0 -9.94 -2.42 0c-0.4,0 -0.71,-0.12 -0.95,-0.36 -0.24,-0.24 -0.36,-0.53 -0.36,-0.87 0,-0.38 0.12,-0.68 0.36,-0.91 0.24,-0.24 0.55,-0.36 0.95,-0.36l2.42 0 0 -5.77c0,-0.42 0.13,-0.77 0.39,-1.04 0.26,-0.27 0.6,-0.41 1.02,-0.41 0.42,0 0.77,0.14 1.04,0.41 0.27,0.27 0.41,0.62 0.41,1.04l0 5.77 4.2 0c0.4,0 0.71,0.12 0.95,0.36 0.24,0.23 0.36,0.54 0.36,0.91 0,0.35 -0.12,0.63 -0.36,0.87 -0.24,0.24 -0.55,0.36 -0.95,0.36l-4.2 0 0 9.94c0,1.27 0.37,2.31 1.11,3.11 0.74,0.8 1.7,1.21 2.87,1.21l1 0zm73.82 -17.68c1.93,0 3.69,0.45 5.27,1.36 1.58,0.91 2.82,2.15 3.72,3.74 0.9,1.59 1.36,3.35 1.36,5.29l0 8.75c0,0.4 -0.13,0.73 -0.41,1.01 -0.27,0.27 -0.62,0.41 -1.04,0.41 -0.42,0 -0.77,-0.13 -1.04,-0.39 -0.27,-0.26 -0.41,-0.6 -0.41,-1.02l0 -2.23c-0.87,1.19 -1.97,2.13 -3.31,2.81 -1.34,0.68 -2.82,1.02 -4.43,1.02 -1.88,0 -3.59,-0.45 -5.12,-1.36 -1.53,-0.91 -2.73,-2.15 -3.61,-3.72 -0.88,-1.57 -1.32,-3.33 -1.32,-5.27 0,-1.93 0.45,-3.7 1.36,-5.29 0.9,-1.59 2.15,-2.83 3.72,-3.74 1.58,-0.9 3.33,-1.36 5.27,-1.36zm0 18.13c1.41,0 2.69,-0.34 3.83,-1.01 1.15,-0.67 2.04,-1.59 2.7,-2.77 0.66,-1.18 0.99,-2.5 0.99,-3.97 0,-1.47 -0.33,-2.79 -0.99,-3.96 -0.66,-1.18 -1.56,-2.11 -2.7,-2.8 -1.14,-0.68 -2.42,-1.02 -3.83,-1.02 -1.41,0 -2.7,0.34 -3.85,1.02 -1.15,0.69 -2.06,1.61 -2.71,2.8 -0.66,1.18 -0.99,2.5 -0.99,3.96 0,1.47 0.33,2.79 0.99,3.97 0.66,1.18 1.56,2.1 2.71,2.77 1.16,0.67 2.44,1.01 3.85,1.01z"/>
 </g>
</svg>
